<?xml version="1.0" encoding="utf-8"?>
<!-- Generator: Adobe Illustrator 16.0.0, SVG Export Plug-In . SVG Version: 6.00 Build 0)  -->
<!DOCTYPE svg PUBLIC "-//W3C//DTD SVG 1.1//EN" "http://www.w3.org/Graphics/SVG/1.1/DTD/svg11.dtd">
<svg version="1.1" id="Livello_1" xmlns:svg="http://www.w3.org/2000/svg"
	 xmlns="http://www.w3.org/2000/svg" xmlns:xlink="http://www.w3.org/1999/xlink" x="0px" y="0px" width="96px" height="20px"
	 viewBox="32 0 96 20" enable-background="new 32 0 96 20" xml:space="preserve">
<path fill="#949494" fill-opacity="0.4196" d="M36.285,7.6c1.325,0,2.4,1.075,2.4,2.4c0,1.325-1.075,2.4-2.4,2.4s-2.4-1.075-2.4-2.4
	l0,0C33.885,8.674,34.96,7.6,36.285,7.6z M45.885,7.6c1.325,0,2.4,1.075,2.4,2.4c0,1.325-1.075,2.4-2.4,2.4
	c-1.326,0-2.4-1.075-2.4-2.4C43.485,8.674,44.56,7.6,45.885,7.6L45.885,7.6z M55.485,7.6c1.325,0,2.4,1.075,2.4,2.4
	c0,1.325-1.075,2.4-2.4,2.4c-1.326,0-2.4-1.075-2.4-2.4C53.085,8.674,54.16,7.6,55.485,7.6L55.485,7.6z M65.085,7.6
	c1.326,0,2.4,1.075,2.4,2.4c0,1.325-1.075,2.4-2.4,2.4c-1.325,0-2.4-1.075-2.4-2.4C62.685,8.674,63.76,7.6,65.085,7.6L65.085,7.6z
	 M74.685,7.6c1.326,0,2.4,1.075,2.4,2.4c0,1.325-1.074,2.4-2.4,2.4c-1.325,0-2.4-1.075-2.4-2.4l0,0
	C72.285,8.674,73.36,7.6,74.685,7.6z M84.285,7.6c1.325,0,2.4,1.075,2.4,2.4c0,1.325-1.075,2.4-2.4,2.4s-2.4-1.075-2.4-2.4
	C81.885,8.674,82.96,7.6,84.285,7.6L84.285,7.6z M93.885,7.6c1.326,0,2.4,1.075,2.4,2.4c0,1.325-1.074,2.4-2.4,2.4
	c-1.325,0-2.399-1.075-2.399-2.4C91.485,8.674,92.56,7.6,93.885,7.6z M103.485,7.6c1.325,0,2.399,1.075,2.399,2.4
	c0,1.325-1.074,2.4-2.399,2.4s-2.4-1.075-2.4-2.4l0,0C101.085,8.674,102.16,7.6,103.485,7.6z M113.085,7.6
	c1.325,0,2.4,1.075,2.4,2.4c0,1.325-1.075,2.4-2.4,2.4s-2.399-1.075-2.399-2.4C110.686,8.674,111.76,7.6,113.085,7.6L113.085,7.6z
	 M122.686,7.6c1.325,0,2.399,1.075,2.399,2.4c0,1.325-1.074,2.4-2.399,2.4c-1.326,0-2.4-1.075-2.4-2.4
	C120.285,8.674,121.359,7.6,122.686,7.6z"/>
<g>
	<path d="M-0.54,6.88c1.724,0,3.12,1.396,3.12,3.12l0,0c0,1.723-1.396,3.12-3.12,3.12c-1.723,0-3.12-1.397-3.12-3.12
		C-3.66,8.276-2.263,6.88-0.54,6.88L-0.54,6.88z M9.06,6.4c1.988,0,3.6,1.612,3.6,3.6l0,0c0,1.987-1.612,3.6-3.6,3.6l0,0
		c-1.988,0-3.6-1.612-3.6-3.6C5.46,8.012,7.072,6.4,9.06,6.4L9.06,6.4z M18.66,5.92c2.253,0,4.08,1.826,4.08,4.08l0,0
		c0,2.254-1.827,4.08-4.08,4.08l0,0c-2.253,0-4.08-1.826-4.08-4.08l0,0C14.58,7.747,16.407,5.92,18.66,5.92L18.66,5.92z"/>
	
		<animateTransform  fill="remove" type="translate" values="23 0;36 0;49 0;62 0;74.5 0;87.5 0;100 0;113 0;125.5 0;138.5 0;151.5 0;164.5 0;178 0" restart="always" dur="910ms" attributeName="transform" calcMode="discrete" additive="replace" accumulate="none" repeatCount="indefinite">
		</animateTransform>
</g>
</svg>
